# xmcd
#
# Track frame offsets: 
#        150
#        19109
#        33966
#        43824
#        62640
#        79225
#        93359
#        110404
#        124418
#        137599
#        152355
#        173334
#        186362
#        199732
#        221010
#        236671
#        253917
#        267885
#        288428
#
# Disc length: 4036 seconds
#
# Revision: 5
# Processed by: cddbd v1.5.2PL0 Copyright (c) Steve Scherf et al.
# Submitted via: ExactAudioCopy v1.0b3
#
DISCID=0d0fc213
DTITLE=Emeli Sandé - Our Version of Events (Special Edition)
DYEAR=2012
DGENRE=Soul
TTITLE0=Heaven
TTITLE1=My Kind of Love
TTITLE2=Where I Sleep
TTITLE3=Mountains
TTITLE4=Clown
TTITLE5=Emeli Sandé feat. Naughty Boy - Daddy
TTITLE6=Maybe
TTITLE7=Suitcase
TTITLE8=Breaking the Law
TTITLE9=Next to Me
TTITLE10=River
TTITLE11=Lifetime
TTITLE12=Hope
TTITLE13=Read All About It (Pt. III)
TTITLE14=Naughty Boy feat. Emeli Sandé - Wonder
TTITLE15=Breaking the Law (Alternate Version)
TTITLE16=Easier in Bed
TTITLE17=Labrinth feat. Emeli Sandé - Beneath Your Beautiful
TTITLE18=Imagine
EXTD=
EXTT0=
EXTT1=
EXTT2=
EXTT3=
EXTT4=
EXTT5=
EXTT6=
EXTT7=
EXTT8=
EXTT9=
EXTT10=
EXTT11=
EXTT12=
EXTT13=
EXTT14=
EXTT15=
EXTT16=
EXTT17=
EXTT18=
PLAYORDER=
